<?xml version="1.0" encoding="UTF-8" standalone="no"?>
<!DOCTYPE svg PUBLIC "-//W3C//DTD SVG 1.1//EN" "http://www.w3.org/Graphics/SVG/1.1/DTD/svg11.dtd">
<!-- Created with Vectornator (http://vectornator.io/) -->
<svg height="40.0pt" stroke-miterlimit="10" style="fill-rule:nonzero;clip-rule:evenodd;stroke-linecap:round;stroke-linejoin:round;" version="1.1" viewBox="0 0 640 512" width="640.0pt" xml:space="preserve" xmlns="http://www.w3.org/2000/svg" xmlns:vectornator="http://vectornator.io" xmlns:xlink="http://www.w3.org/1999/xlink">
<defs/>
<g id="Untitled" vectornator:layerName="Untitled">
<path d="M96.8236 189.271L128.144 189.271C137.937 189.271 145.875 197.384 145.875 207.392L145.875 270.47C145.875 280.478 137.937 288.591 128.144 288.591L96.8236 288.591C87.0309 288.591 79.0925 280.478 79.0925 270.47L79.0925 207.392C79.0925 197.384 87.0309 189.271 96.8236 189.271Z" fill="#364c63" fill-rule="nonzero" opacity="1" stroke="none"/>
<path d="M96.8236 317.998L128.144 317.998C137.937 317.998 145.875 326.111 145.875 336.119L145.875 399.197C145.875 409.205 137.937 417.318 128.144 417.318L96.8236 417.318C87.0309 417.318 79.0925 409.205 79.0925 399.197L79.0925 336.119C79.0925 326.111 87.0309 317.998 96.8236 317.998Z" fill="#364c63" fill-rule="nonzero" opacity="1" stroke="none"/>
<path d="M512.935 189.271L544.256 189.271C554.049 189.271 561.987 197.384 561.987 207.392L561.987 270.47C561.987 280.478 554.049 288.591 544.256 288.591L512.935 288.591C503.143 288.591 495.204 280.478 495.204 270.47L495.204 207.392C495.204 197.384 503.143 189.271 512.935 189.271Z" fill="#364c63" fill-rule="nonzero" opacity="1" stroke="none"/>
<path d="M512.935 317.998L544.256 317.998C554.049 317.998 561.987 326.111 561.987 336.119L561.987 399.197C561.987 409.205 554.049 417.318 544.256 417.318L512.935 417.318C503.143 417.318 495.204 409.205 495.204 399.197L495.204 336.119C495.204 326.111 503.143 317.998 512.935 317.998Z" fill="#364c63" fill-rule="nonzero" opacity="1" stroke="none"/>
<path d="M253.947 512C253.947 512 215.246 317.998 320 340.968C336.769 344.645 353.053 338.274 370.445 367.658C406.365 428.346 389.26 512 389.26 512L253.947 512Z" fill="#364c63" fill-rule="nonzero" opacity="1" stroke="none"/>
<path d="M221.174 176.788C221.174 124.336 264.526 81.8153 318.004 81.8153C371.481 81.8153 414.833 124.336 414.833 176.788C414.833 229.24 371.481 271.761 318.004 271.761C264.526 271.761 221.174 229.24 221.174 176.788Z" fill="#ffffff" fill-rule="nonzero" opacity="1" stroke="none"/>
<path d="M318.951 352.635" fill="#364c63" fill-rule="nonzero" opacity="1" stroke="none"/>
<path d="M337.8 5.4C327-1.8 313-1.8 302.2 5.4L166.3 96L48 96C21.5 96 0 117.5 0 144L0 464C0 490.5 21.5 512 48 512L592 512C618.5 512 640 490.5 640 464L640 144C640 117.5 618.5 96 592 96L473.7 96L337.8 5.4ZM256 416C256 380.7 284.7 352 320 352C355.3 352 384 380.7 384 416L384 512L256 512L256 416ZM96 192L128 192C136.8 192 144 199.2 144 208L144 272C144 280.8 136.8 288 128 288L96 288C87.2 288 80 280.8 80 272L80 208C80 199.2 87.2 192 96 192ZM496 208C496 199.2 503.2 192 512 192L544 192C552.8 192 560 199.2 560 208L560 272C560 280.8 552.8 288 544 288L512 288C503.2 288 496 280.8 496 272L496 208ZM96 320L128 320C136.8 320 144 327.2 144 336L144 400C144 408.8 136.8 416 128 416L96 416C87.2 416 80 408.8 80 400L80 336C80 327.2 87.2 320 96 320ZM496 336C496 327.2 503.2 320 512 320L544 320C552.8 320 560 327.2 560 336L560 400C560 408.8 552.8 416 544 416L512 416C503.2 416 496 408.8 496 400L496 336ZM232 176C232 127.399 271.399 88 320 88C368.601 88 408 127.399 408 176C408 224.601 368.601 264 320 264C271.399 264 232 224.601 232 176ZM320 128C311.2 128 304 135.2 304 144L304 176C304 184.8 311.2 192 320 192L352 192C360.8 192 368 184.8 368 176C368 167.2 360.8 160 352 160L336 160L336 144C336 135.2 328.8 128 320 128Z" fill="#429c9a" fill-rule="nonzero" opacity="1" stroke="none"/>
</g>
</svg>
